<?xml version="1.0" encoding="iso-8859-1"?>
<!-- Generator: Adobe Illustrator 19.0.0, SVG Export Plug-In . SVG Version: 6.00 Build 0)  -->
<svg version="1.1" id="Layer_1" xmlns="http://www.w3.org/2000/svg" xmlns:xlink="http://www.w3.org/1999/xlink" x="0px" y="0px"
	 viewBox="0 0 297 297" style="enable-background:new 0 0 297 297;" xml:space="preserve">
<g>
	<g>
		<circle style="fill:#662621;" cx="148.5" cy="148.5" r="148.5"/>
	</g>
	<g>
		<path style="fill:#4C1C1B;" d="M296.649,138.372l-78.584-78.48L122.75,250.667l44.618,45.145
			C240.474,286.542,297,224.122,297,148.5C297,145.095,296.874,141.72,296.649,138.372z"/>
	</g>
	<g>
		<g>
			<path style="fill:#F9B65F;" d="M133.668,127.344l-5.802,42.357c0.295-0.025,0.592-0.045,0.893-0.045
				c5.842,0,10.578,4.736,10.578,10.578s-4.736,10.578-10.578,10.578c-1.301,0-2.541-0.246-3.692-0.676l-1.729,12.625
				c5.223,0.646,9.268,5.091,9.268,10.488c0,5.842-4.736,10.578-10.578,10.578c-0.531,0-1.049-0.052-1.559-0.127l-2.168,15.828
				c-1.07,7.811,5.189,14.751,13.306,14.751h28.886c6.729,0,12.419-4.838,13.306-11.314l15.838-115.621L133.668,127.344
				L133.668,127.344z"/>
		</g>
		<g>
			<path style="fill:#FFCD02;" d="M65.263,55.53l16.872,84.361c1.001,5.006,5.396,8.609,10.501,8.609h12.183L82.321,42.721h-6.556
				C69.007,42.721,63.938,48.904,65.263,55.53z"/>
		</g>
		<g>
			<path style="fill:#E3E5E4;" d="M179.059,42.721H82.321L104.82,148.5h74.239c29.21,0,52.889-23.679,52.889-52.889l0,0
				C231.948,66.4,208.269,42.721,179.059,42.721z"/>
		</g>
	</g>
</g>
<g>
</g>
<g>
</g>
<g>
</g>
<g>
</g>
<g>
</g>
<g>
</g>
<g>
</g>
<g>
</g>
<g>
</g>
<g>
</g>
<g>
</g>
<g>
</g>
<g>
</g>
<g>
</g>
<g>
</g>
</svg>
